<mxfile host="app.diagrams.net" modified="2023-05-25T18:55:38.814Z" agent="Mozilla/5.0 (Macintosh; Intel Mac OS X 10_15_7) AppleWebKit/537.36 (KHTML, like Gecko) Chrome/113.0.0.0 Safari/537.36" version="21.3.4" etag="Mxq_jgsyI4e7wDQgisvs" type="github">
  <diagram name="PÃ¡gina-1" id="D98XfMjyE5CmtbkRgWvZ">
    <mxGraphModel>
      <root>
        <mxCell id="0" />
        <mxCell id="1" parent="0" />
      </root>
    </mxGraphModel>
  </diagram>
</mxfile>
